<svg id="Capa_1" enable-background="new 0 0 512 512" height="512" viewBox="0 0 512 512" width="512" xmlns="http://www.w3.org/2000/svg"><g><path d="m473.604 459.016h-435.208v-383.277l18.529-21.142h394.723l21.956 21.142z" fill="#f9f6f9"/><path d="m451.858 65.437v393.579h21.746v-383.277z" fill="#dddaec"/><path d="m412.7 0h-313.4c-20.829 0-39.362 13.217-46.147 32.909l-14.757 42.83h435.207l-14.757-42.829c-6.784-19.693-25.317-32.91-46.146-32.91z" fill="#80b4fb"/><path d="m458.847 32.909c-6.785-19.692-25.318-32.909-46.147-32.909h-21.746c20.828 0 39.362 13.217 46.147 32.909l14.757 42.829h21.746z" fill="#61a2f9"/><path d="m473.604 459.016h-435.208v27.827c0 13.894 11.264 25.157 25.157 25.157h384.893c13.894 0 25.157-11.263 25.157-25.157v-27.827z" fill="#407093"/><path d="m451.858 459.016v27.826c0 13.894-11.263 25.157-25.157 25.157h21.746c13.894 0 25.157-11.263 25.157-25.157v-27.826z" fill="#365e7d"/><circle cx="118.288" cy="37.869" fill="#f9f6f9" r="16.728"/><circle cx="192.126" cy="37.869" fill="#f9f6f9" r="16.728"/><g><path d="m269.44 45.596h-26.298c-4.267 0-7.726-3.459-7.726-7.726s3.459-7.726 7.726-7.726h26.298c4.268 0 7.726 3.459 7.726 7.726s-3.458 7.726-7.726 7.726z" fill="#f9f6f9"/></g><g><path d="m339.94 45.596h-26.298c-4.268 0-7.726-3.459-7.726-7.726s3.459-7.726 7.726-7.726h26.298c4.268 0 7.726 3.459 7.726 7.726s-3.458 7.726-7.726 7.726z" fill="#f9f6f9"/></g><g><path d="m410.44 45.596h-26.298c-4.268 0-7.726-3.459-7.726-7.726s3.459-7.726 7.726-7.726h26.298c4.268 0 7.726 3.459 7.726 7.726s-3.458 7.726-7.726 7.726z" fill="#f9f6f9"/></g><circle cx="255.805" cy="267.378" fill="#407093" r="140.841"/><path d="m255.805 126.536c-4.239 0-8.431.198-12.575.565 71.892 6.363 128.266 66.731 128.266 140.276s-56.374 133.914-128.266 140.276c4.144.367 8.336.565 12.575.565 77.785 0 140.841-63.057 140.841-140.842s-63.057-140.84-140.841-140.84z" fill="#365e7d"/><path d="m473.604 141.201h-60.119c-9.3 0-16.839-7.539-16.839-16.839 0-9.3 7.539-16.839 16.839-16.839h60.119z" fill="#80b4fb"/><path d="m451.858 107.523h21.746v33.678h-21.746z" fill="#61a2f9"/><path d="m38.396 391.38h60.119c9.3 0 16.839 7.539 16.839 16.839 0 9.3-7.539 16.839-16.839 16.839h-60.119z" fill="#80b4fb"/><g><path d="m350.694 280.793c-4.268 0-7.726-3.459-7.726-7.726v-11.378c0-4.268 3.459-7.726 7.726-7.726s7.726 3.459 7.726 7.726v11.378c0 4.267-3.459 7.726-7.726 7.726z" fill="#365e7d"/></g><path d="m249.017 265.912c20.762 13.812 46.637 14.043 69.042 10.01-.162-1.06-.246-2.142-.246-3.238v-10.614c0-8.768 5.355-16.646 13.508-19.871 12.62-4.993 17.496-20.365 9.972-31.66-18.359-27.562-49.689-45.742-85.273-45.815-55.94-.115-102.08 45.255-102.86 101.189 0-.001 48.921-31.224 95.857-.001z" fill="#f9f6f9"/><path d="m341.293 210.538c-18.359-27.562-49.689-45.742-85.273-45.815-4.069-.008-8.084.231-12.036.691 30.712 3.535 57.301 20.614 73.628 45.125 7.524 11.296 2.649 26.667-9.972 31.66-8.153 3.226-13.508 11.104-13.508 19.871.068 10.344-.322 12.17.729 16.113 7.906-.055 15.744-.92 23.197-2.262-.409-2.674-.18-3.766-.246-13.852 0-8.768 5.355-16.646 13.508-19.871 12.622-4.993 17.498-20.364 9.973-31.66z" fill="#dddaec"/><path d="m255.805 370.032c35.717 0 67.169-18.243 85.556-45.917 7.484-11.264 2.539-26.582-10.036-31.558l-.004-.001c-7.134-2.823-12.126-9.207-13.262-16.634-22.405 4.033-48.28 3.802-69.042-10.01-46.936-31.224-95.857 0-95.857 0-.8 57.366 45.462 104.12 102.645 104.12z" fill="#80b4fb"/><path d="m331.325 292.557-.004-.001c-7.134-2.823-12.126-9.207-13.262-16.634-7.454 1.342-15.292 2.207-23.197 2.262 1.717 6.442 6.382 11.841 12.779 14.372l.004.001c12.575 4.975 17.519 20.294 10.036 31.558-16.328 24.576-42.964 41.701-73.735 45.231 3.892.448 7.848.686 11.86.686 35.717 0 67.169-18.243 85.556-45.917 7.483-11.264 2.538-26.583-10.037-31.558z" fill="#61a2f9"/><g><g><path d="m110.674 493.235h-24.684c-4.267 0-7.726-3.459-7.726-7.726 0-4.268 3.459-7.726 7.726-7.726h24.685c4.267 0 7.726 3.459 7.726 7.726s-3.46 7.726-7.727 7.726z" fill="#365e7d"/></g><g><path d="m425.619 493.235h-24.684c-4.268 0-7.726-3.459-7.726-7.726 0-4.268 3.459-7.726 7.726-7.726h24.684c4.268 0 7.726 3.459 7.726 7.726.001 4.267-3.458 7.726-7.726 7.726z" fill="#365e7d"/></g></g></g></svg>